<svg width="17" height="10" viewBox="0 0 17 10" fill="none" xmlns="http://www.w3.org/2000/svg">
<path fill-rule="evenodd" clip-rule="evenodd" d="M9.10912 9.61822C8.87754 9.86267 8.56349 10 8.23603 10C7.90858 10 7.59453 9.86267 7.36295 9.61822L0.377007 2.24185C0.259059 2.12156 0.16498 1.97768 0.100259 1.81859C0.0355383 1.65951 0.0014715 1.4884 4.66261e-05 1.31527C-0.00137824 1.14213 0.0298677 0.970431 0.0919605 0.810182C0.154053 0.649933 0.24575 0.504345 0.3617 0.381914C0.47765 0.259484 0.61553 0.162663 0.767298 0.0970995C0.919065 0.0315363 1.08168 -0.00145527 1.24565 4.92329e-05C1.40962 0.00155374 1.57167 0.0375246 1.72233 0.105863C1.873 0.174201 2.00927 0.273537 2.12318 0.398077L8.23603 6.85257L14.3489 0.398077C14.5818 0.160554 14.8937 0.0291241 15.2175 0.0320951C15.5413 0.035066 15.8511 0.1722 16.08 0.41396C16.309 0.655721 16.4389 0.982765 16.4417 1.32465C16.4445 1.66654 16.32 1.99592 16.0951 2.24185L9.10912 9.61822Z" fill="black"/>
</svg>
