<?xml version="1.0" encoding="UTF-8"?>
<svg width="743.89" height="550.14" version="1.1" viewBox="0 0 743.893 550.13799" xml:space="preserve" xmlns="http://www.w3.org/2000/svg"><g class="logo_paths" style="fill: #3f7474" transform="matrix(1.3333 0 0 -1.3333 0 550.14)"><g transform="translate(-18.678 -308.36)"><g transform="translate(183.36 405.25)"><path d="m0 0s4.494-0.803 4.815-6.741c0.645-11.936-18.363-12.614-19.101 1.123-0.361 6.736 4.334 13.002 17.24 14.3 17.561 1.765 47.909-11.076 65.846-51.071 0 0-22.413 65.342-64.402 65.275-36.021-0.058-36.821-26.577-35.698-33.319 2.387-14.321 17.344-24.424 34.51-18.94 11.557 3.691 15.73 15.891 11.717 23.755 0 0-4.494 9.631-14.927 5.618" /></g><g transform="translate(257.62 361.41)"><path d="m0 0c-23.448 60.111-45.066 80.208-85.09 75.962-37.2-6.15-56.856-45.546-91.439-45.546-39.761-0.217-57.57 32.653-37.038 64.539 8.302-31.886 37.812-36.222 81.83-16.782 99.822 41.642 117.6-22.687 131.74-78.173" /></g><g transform="translate(262.42 360.5)"><path d="m0 0c-6.685 46.731-15.05 89.509-51.993 107.1-28.383 13.963-46.017 3.7-65.513 6.792-21.63 2.263-58.091 10.462-67.728 43.465-42.727-34.482-9.134-85.572 50.256-69.958 39.377 10.424 49.238 12.318 70.395 8.202 42.022-9.328 54.44-53.721 64.583-95.605" /></g><g transform="translate(267.66 359.56)"><path d="m0 0c3.167 74.212-5.985 132.4-56.295 157.72-49.188 22.959-67.5 41.04-69.266 78.729-48.01-32.061-51.136-88.256 3.424-105.78 15.112-4.408 52.514-4.02 78.945-23.66 28.815-22.299 37.095-65.227 43.192-107.01" /></g><g transform="translate(272.54 358.73)"><path d="m0 0c18.774 41.697 21.518 119.46-22.806 204.46-27.37 58.81-24.417 70.12-12.041 117.36-72.825-26.773-87.403-105.91-34.728-140.64 62.837-41.409 72.058-95.236 69.575-181.18" /></g><g transform="translate(411.83 405.25)"><path d="m0 0s-4.494-0.803-4.815-6.741c-0.646-11.936 18.363-12.614 19.1 1.123 0.361 6.736-4.334 13.002-17.239 14.3-17.562 1.765-47.91-11.076-65.846-51.071 0 0 22.412 65.342 64.402 65.275 36.021-0.058 36.821-26.577 35.697-33.319-2.387-14.321-17.343-24.424-34.51-18.94-11.557 3.691-15.729 15.891-11.717 23.755 0 0 4.494 9.631 14.928 5.618" /></g><g transform="translate(337.57 361.41)"><path d="m0 0c23.448 60.111 45.066 80.208 85.09 75.962 37.2-6.15 56.855-45.546 91.439-45.546 39.761-0.217 57.571 32.653 37.038 64.539-8.301-31.886-37.812-36.222-81.83-16.782-99.822 41.642-117.6-22.687-131.74-78.173" /></g><g transform="translate(332.76 360.5)"><path d="m0 0c6.685 46.731 15.051 89.509 51.992 107.1 28.384 13.963 46.018 3.7 65.514 6.792 21.63 2.263 58.091 10.462 67.727 43.465 42.728-34.482 9.135-85.572-50.255-69.958-39.377 10.424-49.238 12.318-70.395 8.202-42.022-9.328-54.44-53.721-64.583-95.605" /></g><g transform="translate(327.52 359.56)"><path d="m0 0c-3.166 74.212 5.985 132.4 56.296 157.72 49.187 22.959 67.5 41.04 69.265 78.729 48.011-32.061 51.137-88.256-3.423-105.78-15.113-4.408-52.515-4.02-78.945-23.66-28.815-22.299-37.095-65.227-43.193-107.01" /></g><g transform="translate(322.65 358.73)"><path d="m 0,0 c -18.773,41.697 -21.518,119.46 22.807,204.463 27.369,58.81 24.416,70.12 12.04,117.36 C 107.673,295.05 122.251,215.91 69.575,181.179 6.738,139.77 -2.482,85.943 0,0" /></g><g transform="translate(576.6 375.98)"><path d="m0 0-0.611-15.768c-1.527-3.614-4.853-6.148-8.742-6.662l-188.88-23.987c-0.942-0.123-1.64-0.934-1.625-1.883-0.575-2.712-1.459-5.128-2.706-7.057-1.247-1.931-2.858-3.374-4.883-4.145-6.788-2.577-17.243-4.634-31.092-6.065-12.005-1.241-25.939-1.948-40.385-2.048h-0.066c-14.446 0.1-28.38 0.807-40.384 2.048-13.849 1.431-24.305 3.488-31.093 6.065-2.026 0.771-3.635 2.214-4.883 4.145-1.247 1.929-2.131 4.345-2.706 7.057 0.015 0.949-0.684 1.76-1.624 1.883l-188.88 23.987c-3.889 0.514-7.215 3.048-8.742 6.662l-0.611 15.768 214.1-25.604c3.315-0.409 6.74-3.372 7.636-6.389l1.752-6.611c10.763-4.285 31.082-6.439 55.439-6.628h0.066c24.358 0.189 44.677 2.343 55.439 6.628l1.753 6.611c0.895 3.017 4.321 5.98 7.635 6.389z" /></g><g transform="translate(297.66 356.86)"><path d="m0 0-0.437-0.033v0.065z" /></g><g transform="translate(297.84 356.87)"><path d="m0 0v-0.027l-0.036 4e-3 -0.142 0.01 0.142 0.012z" /></g><g transform="translate(298.1 356.82)"><path d="m0 0-0.257 0.019-0.035 3e-3 -0.143 0.011-0.437-0.033v0.065l0.437-0.032 0.143 0.012 0.035 1e-3 0.257 0.019zm-0.435 364.14h-2e-3c-12.219-2.67-56.899-61.101-42.1-118.64 30.953-103.75 47.696-183.42 21.515-243.9l-0.326-0.728c6.883-1.35 13.969-1.7 21.056-1.693h0.035c6.977-7e-3 13.953 0.343 20.728 1.693l-0.321 0.728c-26.181 60.484-9.438 140.15 21.516 243.9 14.798 57.536-29.881 115.97-42.101 118.64" /></g><g transform="translate(298.1 356.89)"><path d="m0 0v-0.065l-0.257 0.018-0.035 4e-3v0.022l0.035 1e-3z" /></g><g transform="translate(297.66 356.86)"><path d="m0 0-0.437-0.033v0.065z" /></g></g></g></svg>
